<?xml version="1.0" encoding="utf-8"?>
<!-- Generator: Adobe Illustrator 23.0.1, SVG Export Plug-In . SVG Version: 6.00 Build 0)  -->
<svg version="1.1" id="Capa_1" xmlns="http://www.w3.org/2000/svg" xmlns:xlink="http://www.w3.org/1999/xlink" x="0px" y="0px"
	 viewBox="0 0 512 512" style="enable-background:new 0 0 512 512;" xml:space="preserve">
<style type="text/css">
	.st0{fill:#FFFFFF;}
</style>
<path class="st0" d="M509.9,23.7l-21-21.4c-1.4-1.4-3.3-2.2-5.3-2.2c-2,0-3.9,0.8-5.3,2.2L166.6,313.8c-9.8,9.8-20.3,18.9-31.3,27.2
	L18.6,428.5c-10.7,8-17.4,20.3-18.5,33.6c-1,13.4,3.7,26.5,13.1,36.1c8.7,8.9,20.6,13.8,33,13.8c1,0,2,0,3.1-0.1
	c13.9-0.9,26.6-7.8,34.9-18.9l87.1-116.1c8.3-11,17.4-21.6,27.2-31.3l145.1-145.1c2.9-2.9,2.9-7.7,0-10.6c-2.9-2.9-7.7-2.9-10.6,0
	L193.1,329.7l-10.6-10.6L483.4,18.2l10.5,10.7L354.1,168.7c-2.9,2.9-2.9,7.7,0,10.6c2.9,2.9,7.7,2.9,10.6,0L509.8,34.2
	C512.7,31.3,512.7,26.6,509.9,23.7L509.9,23.7z M159.2,367.9L72.2,484c-5.7,7.6-14.4,12.3-23.9,12.9c-9.2,0.6-18-2.8-24.3-9.2
	c-6.3-6.5-9.6-15.4-8.9-24.4c0.7-9,5.3-17.4,12.5-22.8L144.3,353c9.6-7.2,18.8-15,27.6-23.3l10.8,10.8
	C174.3,349.1,166.4,358.3,159.2,367.9L159.2,367.9z"/>
</svg>
