<svg id="Capa_1" data-name="Capa 1" xmlns="http://www.w3.org/2000/svg" viewBox="0 0 402 402"><defs><style>.cls-1{fill:none;stroke:#fff;stroke-miterlimit:10;stroke-width:2px;}</style></defs><title>blogger</title><path class="cls-1" d="M410,450H90a40,40,0,0,1-40-40V90A40,40,0,0,1,90,50H410a40,40,0,0,1,40,40V410A40,40,0,0,1,410,450Z" transform="translate(-49 -49)"/><path class="cls-1" d="M200,220h50a20,20,0,0,0,0-40H200a20,20,0,0,0,0,40Z" transform="translate(-49 -49)"/><path class="cls-1" d="M300,280H200a20,20,0,0,0,0,40H300a20,20,0,0,0,0-40Z" transform="translate(-49 -49)"/><path class="cls-1" d="M360,220H350a20.06,20.06,0,0,1-20-20,80.24,80.24,0,0,0-80-80H200a80.24,80.24,0,0,0-80,80V300a80.24,80.24,0,0,0,80,80H300a80.24,80.24,0,0,0,80-80V240A20.06,20.06,0,0,0,360,220Z" transform="translate(-49 -49)"/></svg>