<?xml version="1.0" encoding="utf-8"?>
<!-- Generator: Adobe Illustrator 23.0.1, SVG Export Plug-In . SVG Version: 6.00 Build 0)  -->
<svg version="1.1" id="Capa_1" xmlns="http://www.w3.org/2000/svg" xmlns:xlink="http://www.w3.org/1999/xlink" x="0px" y="0px"
	 viewBox="0 0 512 512" style="enable-background:new 0 0 512 512;" xml:space="preserve">
<style type="text/css">
	.st0{fill:#FEFCE4;}
</style>
<g>
	<g>
		<path class="st0" d="M439.5,128c-18.8,0-34.1,15.3-34.1,34.1s15.3,34.1,34.1,34.1s34.1-15.3,34.1-34.1S458.3,128,439.5,128z"/>
	</g>
</g>
<g>
	<g>
		<path class="st0" d="M439.5,247.5c-18.8,0-34.1,15.3-34.1,34.1s15.3,34.1,34.1,34.1s34.1-15.3,34.1-34.1
			C473.6,262.8,458.3,247.5,439.5,247.5z"/>
	</g>
</g>
<g>
	<g>
		<path class="st0" d="M292.2,54.8c-5.5-5.9-11.4-11.7-17.7-17c-31.3-26.7-74-40.6-114.2-37.4c-33.6,2.7-62.2,17-82.8,41.3
			C51,73,28,124.3,43.3,174.3c13.4,43.9,59.2,77.6,108.9,80.2c19.5,1,36.2-3.2,48.4-12.1c11.2-8.1,18.8-21.3,20.9-36
			c2.1-14.6-1.6-29.2-10-40.1c-9.1-11.7-22.8-19.5-37.6-21.3c-13.5-1.7-26.5,1.9-36.7,9.9c-1.4,1.1-2.7,2.2-4,3.4
			c-3.4,3-6.6,5.7-9.5,6.1c-3.8,0.5-6.6-0.5-9.1-3.1c-7.8-8.1-9.5-28.6-7.7-39.7c4.8-29.4,34.1-61.3,66.4-59.5
			c23.3,1.2,48.2,14.8,68.4,37.4c88.9,99.1,6,247.2-79.2,353.9c-10.5,13.1-22.2,27.3-37,44.6c0,0,0,0,0,0c-3.1,3.6-2.6,9,1,12
			c1.6,1.4,3.6,2,5.5,2c2.4,0,4.8-1,6.5-3c0,0,0,0,0,0c3.7-4.3,24.6-18.5,38.5-27.8c11.4-7.7,21.3-14.4,25.8-18.1
			c21.8-17.9,42.2-37.3,60.8-57.6C347.8,313.2,382.8,152.9,292.2,54.8z"/>
	</g>
</g>
</svg>
