<?xml version="1.0" encoding="utf-8"?>
<!-- Generator: Adobe Illustrator 23.0.1, SVG Export Plug-In . SVG Version: 6.00 Build 0)  -->
<svg version="1.1" id="Capa_1" xmlns="http://www.w3.org/2000/svg" xmlns:xlink="http://www.w3.org/1999/xlink" x="0px" y="0px"
	 viewBox="0 0 480 480" style="enable-background:new 0 0 480 480;" xml:space="preserve">
<style type="text/css">
	.st0{fill:#F2F2E4;}
	.st1{fill:#F4F4EA;}
</style>
<g>
	<g>
		<path class="st0" d="M165.7,378.2l-64-64c-3.1-3.1-8.2-3.1-11.3,0l-24,24c-3.1,3.1-3.1,8.2,0,11.3l64,64c3.1,3.1,8.2,3.1,11.3,0
			l24-24C168.8,386.4,168.8,381.3,165.7,378.2z M136,396.6l-52.7-52.7L96,331.2l52.7,52.7L136,396.6z"/>
	</g>
</g>
<g>
	<g>
		<path class="st1" d="M472,67.2c10.7-10.7,10.7-28,0-38.6L451.3,7.9c-10.8-10.3-27.8-10.3-38.6,0l-4.7,4.7L397.7,2.2l-11.3,11.3
			l10.3,10.3L384,36.6l-10.3-10.3l-11.3,11.3L373,48.2c-3.3,4.6-5,10.1-5,15.7c0,1.4,0.2,2.9,0.4,4.3L261.8,174.8l-6.6-6.6
			c-21.8-21.8-57.2-21.8-79,0c0,0,0,0,0,0l-22.5,22.5c-13.7,13.7-31,23.3-50,27.7l-11,2.5C28.4,235.8-11.8,300.1,3.1,364.4
			c5,21.9,16.1,41.8,32,57.7l22.7,22.7c46.7,46.7,122.5,46.7,169.2,0c15.8-15.9,26.9-35.8,32-57.7l2.5-11c4.4-18.9,14-36.2,27.7-50
			l22.5-22.5c21.8-21.8,21.8-57.2,0-79l-6.6-6.6l106.7-106.7c1.4,0.2,2.8,0.4,4.3,0.4c5.6,0,11.1-1.8,15.7-5l10.7,10.7l11.3-11.3
			l-10.3-10.3L456,83.2l10.3,10.3l11.3-11.3l-10.3-10.3L472,67.2z M300.3,292.4l-22.5,22.5c-15.9,15.8-27,35.8-32,57.7l-2.5,11
			c-12.9,55.8-68.5,90.5-124.3,77.7c-18.9-4.4-36.2-14-50-27.7l-22.7-22.7c-40.5-40.5-40.5-106.1,0-146.6c13.7-13.7,31-23.3,50-27.7
			l11-2.5c21.9-5,41.8-16.1,57.7-32l22.5-22.5c15.6-15.6,40.8-15.6,56.4,0c0,0,0,0,0,0l6.6,6.6l-38,38c-1.5-0.1-3-0.2-4.5-0.2
			c-26.5,0-48,21.5-48,48s21.5,48,48,48s48-21.5,48-48c0-1.5-0.1-3-0.2-4.5l38-38l6.6,6.6C315.9,251.6,315.9,276.8,300.3,292.4z
			 M230.6,249.2c12.5,12.5,12.5,32.8,0,45.3c0,0,0,0,0,0c-12.7,12.1-32.6,12.1-45.2,0c-12.5-12.5-12.5-32.8,0-45.3
			C197.9,236.8,218.1,236.8,230.6,249.2z M250.7,249.9c-4.6-8.9-11.8-16.1-20.7-20.7l146-146l20.7,20.7L250.7,249.9z M460.7,55.9
			L424,92.6c-4.5,4.3-11.5,4.3-16,0l-20.7-20.7c-4.4-4.4-4.4-11.6,0-16L424,19.2c4.4-4.4,11.6-4.4,16,0c0,0,0,0,0,0l20.7,20.7
			C465.1,44.3,465.1,51.5,460.7,55.9z"/>
	</g>
</g>
</svg>
