<svg fill="#000000" xmlns="http://www.w3.org/2000/svg"  viewBox="0 0 100 100" width="400px" height="400px"><path d="M29,15h4l2.875,10.375h0.25L39,15h4l-5,16v10h-4V31L29,15z"/><path d="M52.492,22.99c-1.001-0.993-2.279-1.49-3.847-1.49c-1.727,0-3.091,0.473-4.108,1.419c-1.025,0.93-1.537,2.2-1.537,3.776	v8.612c0,1.734,0.497,3.122,1.49,4.147C45.491,40.48,46.808,41,48.472,41c1.727,0,3.075-0.497,4.052-1.498	c0.978-1.001,1.466-2.373,1.466-4.123v-8.565C53.99,25.253,53.494,23.976,52.492,22.99z M50,36c0,0.828-0.672,1.5-1.5,1.5	S47,36.828,47,36c0-0.644,0-8.856,0-9.5c0-0.828,0.672-1.5,1.5-1.5s1.5,0.672,1.5,1.5C50,27.144,50,35.356,50,36z"/><path d="M64,22v14.204c-0.64,0.666-1.466,1.296-2.125,1.296C61.392,37.5,61,37.108,61,36.625V22h-4c0,0,0,15.346,0,16.438	C57,39.853,58.147,41,59.563,41c1.644,0,3.354-1.03,4.438-2.286V41h4V22H64z"/><path fill="none" stroke="#000000" stroke-miterlimit="10" stroke-width="2" d="M21,64.5c0,5.75,0.185,10.985,0.512,12.5	c0.352,1.631,1.12,3.113,2.247,4.24c1.128,1.128,2.608,1.895,4.24,2.247C30.375,84,42,84,49.999,84c8,0,19.626,0,22.001-0.513	c1.631-0.352,3.112-1.12,4.24-2.247c1.128-1.128,1.895-2.609,2.247-4.24C78.815,75.484,79,70.251,79,64.5h-0.001	c0-5.75-0.184-10.984-0.511-12.499c-0.352-1.631-1.12-3.112-2.247-4.24s-2.608-1.895-4.24-2.247C69.625,45,57.999,45,49.999,45	s-19.625,0-22,0.513c-1.631,0.352-3.112,1.12-4.24,2.247s-1.895,2.609-2.247,4.24C21.185,53.516,21,58.75,21,64.5z"/><polygon points="38,51 26,51 26,55.065 30,55.065 30,77 34,77 34,55.065 38,55.065"/><path d="M45,58v13.625c0,0-1.25,1.375-2.25,1.375C42.336,73,42,72.664,42,72.25V58h-4c0,0,0,15.501,0,16.063	C38,75.685,39.315,77,40.938,77c1.771,0,3.183-1.154,4.063-2v2h4V58H45z"/><path d="M57.875,57.5c-0.679,0-1.31,0.18-1.875,0.47V51h-4v26h4v-0.47c0.565,0.29,1.196,0.47,1.875,0.47	C60.153,77,62,75.153,62,72.875c0-1.487,0-9.765,0-11.25C62,59.347,60.153,57.5,57.875,57.5z M58,73.188	C58,73.636,57.636,74,57.188,74C56.375,74,56,73.375,56,73.375v-11.75c0,0,0.375-0.625,1.188-0.625C57.636,61,58,61.364,58,61.813	C58,62.196,58,72.802,58,73.188z"/><path d="M75,68c0-1.927,0-4.017,0-5c0-3.038-2.462-5.5-5.5-5.5S64,59.962,64,63c0,1.712,0,6.788,0,8.5c0,3.038,2.462,5.5,5.5,5.5	s5.5-2.462,5.5-5.5c0-0.366,0-0.892,0-1.5h-4c0,0,0,1.672,0,2.5S70.328,74,69.5,74S68,73.328,68,72.5s0-4.5,0-4.5H75z M69.5,61	c0.828,0,1.5,0.672,1.5,1.5c0,0.344,0,2.5,0,2.5h-3c0,0,0-1.672,0-2.5S68.672,61,69.5,61z"/></svg>