<svg id="Capa_1" data-name="Capa 1" xmlns="http://www.w3.org/2000/svg" viewBox="0 0 462 497.02"><defs><style>.cls-1{fill:#4a0f18;}.cls-2{fill:#441712;}.cls-3{fill:#33110d;}.cls-4{fill:#522a11;}.cls-5{fill:#521b15;}.cls-6{font-size:173.92px;}.cls-10,.cls-6,.cls-7,.cls-8{fill:#fefce4;}.cls-10,.cls-6,.cls-8{font-family:OldEnglishTextMT, Old English Text MT;}.cls-8{font-size:156.83px;}.cls-9{fill:#0a0002;}.cls-10{font-size:33.01px;}</style></defs><title>logo-benigno</title><polygon class="cls-1" points="5.33 4.84 459.65 4.84 459.65 307.72 232.49 497.02 5.33 307.72 5.33 4.84"/><rect class="cls-2" x="9.26" y="11.15" width="220.77" height="151.44"/><rect class="cls-3" x="9.26" y="162.59" width="220.77" height="151.44"/><rect class="cls-4" x="230.03" y="162.59" width="225.69" height="151.44"/><rect class="cls-5" x="230.03" y="11.15" width="225.69" height="151.44"/><text class="cls-6" transform="translate(275.51 290.89)">C</text><path class="cls-7" d="M590.21,334c4.15,10.37,21.16,18,31.59,12.55,3.88,9.15,4.93,30.18-15.57,23.93a5,5,0,0,1-1.71-1,7.49,7.49,0,1,0,1.68-14.8c-10.71,0-9.53,16.56,1.79,18.05,4.69.62,8.27,0,11-1.47,9.65-5.23,6.45-16.66,4.36-25.22,1.58-1.09,9.1-4.47,10.59-12.08,1.78-13.4-6.95-18.68-17.38-17.62l-3-13.45a46.76,46.76,0,0,0,9.08-9.61c7.36-11.28,5.89-25.78-2.39-36.41a1.9,1.9,0,0,0-3.08,0c-9.2,11.43-9.42,20.6-8.37,27.76.46,2.77,1.13,5.53,1.48,8.31-2.67,2.34-5.59,4.85-8.36,7.65C593.59,309.27,585.92,321.46,590.21,334Zm32.44,10.21c-1.64-7.43-3.11-14.09-4.72-21.4C631.28,322.61,632.67,338.28,622.65,344.18Zm-8.47-74.76c1.51-3.1,3.35-6.69,6.39-5.92,4.35,1.1,5.34,8,3.07,14.15-2.11,5.71-6.37,9.12-7.28,10.26-1.71,2.14-3.46,3.8-5,4.26C610.43,287.4,610.87,276.24,614.18,269.42Zm-2,34.63,2.72,12.3c-11.07,1.94-16.53,16.9-6,21.95,1.2.57,1.32.26.46-.74-4.51-5.27-1.18-14.32,6.92-14.77,1.69,7.66,3.2,14.51,4.89,22.14-10,4.65-22.71.64-26.06-10.59a3.51,3.51,0,0,1-.47-2C592.44,318.55,603.18,311.59,612.19,304.05Z" transform="translate(-505.2 -79)"/><path class="cls-7" d="M890.7,141.5a6.95,6.95,0,1,0,6.95,6.94A6.94,6.94,0,0,0,890.7,141.5Z" transform="translate(-505.2 -79)"/><path class="cls-7" d="M890.7,165.8a6.95,6.95,0,1,0,6.95,6.95A7,7,0,0,0,890.7,165.8Z" transform="translate(-505.2 -79)"/><path class="cls-7" d="M860.75,126.62a42.08,42.08,0,0,0-3.6-3.46,32.53,32.53,0,0,0-23.23-7.6A24.12,24.12,0,0,0,817.07,124c-5.4,6.37-10.07,16.8-7,27,2.73,8.94,12,15.79,22.16,16.31a15.32,15.32,0,0,0,9.85-2.46,11.21,11.21,0,0,0,2.21-15.47,11.45,11.45,0,0,0-7.65-4.33,10,10,0,0,0-7.46,2c-.28.21-.55.45-.82.69a4.5,4.5,0,0,1-1.95,1.23,2,2,0,0,1-1.85-.62c-1.58-1.65-1.93-5.83-1.56-8.08,1-6,6.94-12.46,13.5-12.1,4.74.24,9.81,3,13.93,7.6,18.08,20.17,1.22,50.28-16.11,72-2.14,2.67-4.53,5.55-7.52,9.07h0a1.74,1.74,0,0,0,.2,2.45,1.72,1.72,0,0,0,1.12.42,1.75,1.75,0,0,0,1.33-.61h0c.76-.88,5-3.75,7.83-5.65,2.32-1.57,4.33-2.93,5.25-3.68a120.81,120.81,0,0,0,12.37-11.73C872.06,179.18,879.16,146.57,860.75,126.62Z" transform="translate(-505.2 -79)"/><text class="cls-8" transform="matrix(1, -0.01, 0.01, 1, 45.04, 136.42)">B</text><path class="cls-9" d="M568.78,527.75l7.94,23.84-55.63,15.89L537,527.75,505.2,503.9s71.52-23.84,63.58-23.84,0-15.89,0-15.89,103.31-39.74,143.05-31.79,111.26-15.9,190.74,23.84v23.84S958.2,496,966.15,496s-31.79,23.84-31.79,23.84l15.89,39.74-55.63-15.9,8-23.84S775.41,488,735.67,496,584.67,511.85,568.78,527.75Z" transform="translate(-505.2 -79)"/><text class="cls-10" transform="translate(123.82 401.23)">BenignoCanache</text></svg>