<?xml version="1.0" encoding="utf-8"?>
<!-- Generator: Adobe Illustrator 23.0.1, SVG Export Plug-In . SVG Version: 6.00 Build 0)  -->
<svg version="1.1" id="Capa_1" xmlns="http://www.w3.org/2000/svg" xmlns:xlink="http://www.w3.org/1999/xlink" x="0px" y="0px"
	 viewBox="0 0 400 400" style="enable-background:new 0 0 400 400;" xml:space="preserve">
<style type="text/css">
	.st0{fill:#F4F2F2;}
	.st1{fill:none;stroke:#F9F7F7;stroke-miterlimit:10;}
</style>
<path class="st0" d="M116,60h16l11.5,41.5h1L156,60h16l-20,64v40h-16v-40L116,60z"/>
<path class="st0" d="M210,92c-4-4-9.1-6-15.4-6c-6.9,0-12.4,1.9-16.4,5.7c-4.1,3.7-6.1,8.8-6.1,15.1v34.4c0,6.9,2,12.5,6,16.6
	c4,4.1,9.3,6.2,15.9,6.2c6.9,0,12.3-2,16.2-6c3.9-4,5.9-9.5,5.9-16.5v-34.3C216,101,214,95.9,210,92z M200,144c0,3.3-2.7,6-6,6
	s-6-2.7-6-6c0-2.6,0-35.4,0-38c0-3.3,2.7-6,6-6s6,2.7,6,6C200,108.6,200,141.4,200,144z"/>
<path class="st0" d="M256,88v56.8c-2.6,2.7-5.9,5.2-8.5,5.2c-1.9,0-3.5-1.6-3.5-3.5V88h-16c0,0,0,61.4,0,65.8
	c0,5.7,4.6,10.2,10.3,10.2c6.6,0,13.4-4.1,17.8-9.1v9.1h16V88H256z"/>
<path class="st1" d="M84,258c0,23,0.7,43.9,2,50c1.4,6.5,4.5,12.5,9,17c4.5,4.5,10.4,7.6,17,9c9.5,2.1,56,2.1,88,2.1
	c32,0,78.5,0,88-2.1c6.5-1.4,12.4-4.5,17-9c4.5-4.5,7.6-10.4,9-17c1.3-6.1,2.1-27,2.1-50h0c0-23-0.7-43.9-2-50
	c-1.4-6.5-4.5-12.4-9-17s-10.4-7.6-17-9c-9.5-2.1-56-2.1-88-2.1s-78.5,0-88,2.1c-6.5,1.4-12.4,4.5-17,9s-7.6,10.4-9,17
	C84.7,214.1,84,235,84,258z"/>
<polygon class="st0" points="152,204 104,204 104,220.3 120,220.3 120,308 136,308 136,220.3 152,220.3 "/>
<path class="st0" d="M180,232v54.5c0,0-5,5.5-9,5.5c-1.7,0-3-1.3-3-3v-57h-16c0,0,0,62,0,64.3c0,6.5,5.3,11.7,11.8,11.7
	c7.1,0,12.7-4.6,16.3-8v8h16v-76H180z"/>
<path class="st0" d="M231.5,230c-2.7,0-5.2,0.7-7.5,1.9V204h-16v104h16v-1.9c2.3,1.2,4.8,1.9,7.5,1.9c9.1,0,16.5-7.4,16.5-16.5
	c0-5.9,0-39.1,0-45C248,237.4,240.6,230,231.5,230z M232,292.8c0,1.8-1.5,3.2-3.2,3.2c-3.3,0-4.8-2.5-4.8-2.5v-47
	c0,0,1.5-2.5,4.8-2.5c1.8,0,3.2,1.5,3.2,3.3C232,248.8,232,291.2,232,292.8z"/>
<path class="st0" d="M300,272c0-7.7,0-16.1,0-20c0-12.2-9.8-22-22-22s-22,9.8-22,22c0,6.8,0,27.2,0,34c0,12.2,9.8,22,22,22
	s22-9.8,22-22c0-1.5,0-3.6,0-6h-16c0,0,0,6.7,0,10s-2.7,6-6,6s-6-2.7-6-6s0-18,0-18H300z M278,244c3.3,0,6,2.7,6,6c0,1.4,0,10,0,10
	h-12c0,0,0-6.7,0-10S274.7,244,278,244z"/>
</svg>
